HIERARCHY
ROOT Hips
{
	OFFSET 0.00 0.00 0.00
	CHANNELS 6 Xposition Yposition Zposition Yrotation Xrotation Zrotation
	JOINT Spine
	{
		OFFSET	0.0000	9.2263	1.5771
		CHANNELS 3 Xrotation Yrotation Zrotation
		JOINT Spine1
		{
			OFFSET	0.0000	16.2540	-0.1656
			CHANNELS 3 Xrotation Yrotation Zrotation
			JOINT Spine2
			{
				OFFSET	0.0000	13.6396	-1.2923
				CHANNELS 3 Xrotation Yrotation Zrotation
				JOINT Neck
				{
					OFFSET	0.0000	13.8774	-4.3542
					CHANNELS 3 Xrotation Yrotation Zrotation
					JOINT Neck1
					{
						OFFSET	0.0000	4.3400	0.9269
						CHANNELS 3 Xrotation Yrotation Zrotation
						JOINT Head
						{
							OFFSET	0.0000	4.0266	0.8585
							CHANNELS 3 Xrotation Yrotation Zrotation
							End Site
							{
								OFFSET 0.0000 23.0297 0.1231
							}
						}
					}
				}
				JOINT LeftShoulder
				{
					OFFSET	6.1442	10.1870	-3.7932
					CHANNELS 3 Zrotation Xrotation Yrotation
					JOINT LeftArm
					{
						OFFSET	12.3191	-1.1130	-1.7935
						CHANNELS 3 Zrotation Xrotation Yrotation
						JOINT LeftForeArm
						{
							OFFSET	27.6870	0.0000	0.0000
							CHANNELS 3 Xrotation Zrotation Yrotation
							JOINT LeftHand
							{
								OFFSET	27.8738	0.0000	0.0000
								CHANNELS 3 Zrotation Yrotation Xrotation
								JOINT LeftHandThumb1
								{
									OFFSET	2.3785	-1.0029	2.6209
									CHANNELS 3 Zrotation Xrotation Yrotation
									JOINT LeftHandThumb2
									{
										OFFSET	3.3624	-1.0029	2.8398
										CHANNELS 3 Zrotation Xrotation Yrotation
										JOINT LeftHandThumb3
										{
											OFFSET	4.5018	-1.3445	2.1783
											CHANNELS 3 Zrotation Xrotation Yrotation
											End Site
											{
												OFFSET 2.6000 -1.0000 1.0000
											}
										}
									}
								}
								JOINT LeftHandMiddle1
								{
									OFFSET	10.4639	0.6148	0.4298
									CHANNELS 3 Zrotation Xrotation Yrotation
									JOINT LeftHandMiddle2
									{
										OFFSET	5.7921	0.0000	0.0000
										CHANNELS 3 Zrotation Xrotation Yrotation
										JOINT LeftHandMiddle3
										{
											OFFSET	3.7132	0.0000	0.0000
											CHANNELS 3 Zrotation Xrotation Yrotation
											End Site
											{
												OFFSET 2.3000 0.0000 0.0000
											}
										}
									}
								}
								JOINT LeftHandIndex1
								{
									OFFSET	10.3945	0.6148	2.7055
									CHANNELS 3 Zrotation Xrotation Yrotation
									JOINT LeftHandIndex2
									{
										OFFSET	5.5493	0.0000	0.0000
										CHANNELS 3 Zrotation Xrotation Yrotation
										JOINT LeftHandIndex3
										{
											OFFSET	3.3911	0.0000	0.0000
											CHANNELS 3 Zrotation Xrotation Yrotation
											End Site
											{
												OFFSET 2.5000 0.0000 0.0000
											}
										}
									}
								}
								JOINT LeftHandRing1
								{
									OFFSET	10.3252	0.3211	-1.8755
									CHANNELS 3 Zrotation Xrotation Yrotation
									JOINT LeftHandRing2
									{
										OFFSET	5.4452	0.0000	0.0000
										CHANNELS 3 Zrotation Xrotation Yrotation
										JOINT LeftHandRing3
										{
											OFFSET	3.7132	0.0000	0.0000
											CHANNELS 3 Zrotation Xrotation Yrotation
											End Site
											{
												OFFSET 2.0000 0.0000 0.0000
											}
										}
									}
								}
								JOINT LeftHandPinky1
								{
									OFFSET	10.0130	-0.0783	-3.9671
									CHANNELS 3 Zrotation Xrotation Yrotation
									JOINT LeftHandPinky2
									{
										OFFSET	3.6763	0.0000	0.0000
										CHANNELS 3 Zrotation Xrotation Yrotation
										JOINT LeftHandPinky3
										{
											OFFSET	2.8113	0.0000	0.0000
											CHANNELS 3 Zrotation Xrotation Yrotation
											End Site
											{
												OFFSET 2.9000 0.0000 0.0000
											}
										}
									}
								}
							}
						}
					}
				}
				JOINT RightShoulder
				{
					OFFSET	-6.1402	10.1870	-3.7932
					CHANNELS 3 Zrotation Xrotation Yrotation
					JOINT RightArm
					{
						OFFSET	-12.3231	-1.1130	-1.7935
						CHANNELS 3 Zrotation Xrotation Yrotation
						JOINT RightForeArm
						{
							OFFSET	-27.6870	0.0000	0.0000
							CHANNELS 3 Xrotation Zrotation Yrotation
							JOINT RightHand
							{
								OFFSET	-27.8738	0.0000	0.0000
								CHANNELS 3 Zrotation Yrotation Xrotation
								JOINT RightHandThumb1
								{
									OFFSET	-2.5178	-0.9367	2.5137
									CHANNELS 3 Zrotation Xrotation Yrotation
									JOINT RightHandThumb2
									{
										OFFSET	-3.2638	-1.0870	2.9669
										CHANNELS 3 Zrotation Xrotation Yrotation
										JOINT RightHandThumb3
										{
											OFFSET	-4.4165	-1.3703	2.1350
											CHANNELS 3 Zrotation Xrotation Yrotation
											End Site
											{
												OFFSET -2.6000 -1.0000 1.0000
											}
										}
									}
								}
								JOINT RightHandIndex1
								{
									OFFSET	-10.4665	0.4896	2.7120
									CHANNELS 3 Zrotation Xrotation Yrotation
									JOINT RightHandIndex2
									{
										OFFSET	-5.3768	0.0000	0.0000
										CHANNELS 3 Zrotation Xrotation Yrotation
										JOINT RightHandIndex3
										{
											OFFSET	-3.3855	0.0000	0.0000
											CHANNELS 3 Zrotation Xrotation Yrotation
											End Site
											{
												OFFSET -2.6000 0.0000 0.0000
											}
										}
									}
								}
								JOINT RightHandMiddle1
								{
									OFFSET	-10.7596	0.4896	0.4278
									CHANNELS 3 Zrotation Xrotation Yrotation
									JOINT RightHandMiddle2
									{
										OFFSET	-5.6168	0.0000	0.0000
										CHANNELS 3 Zrotation Xrotation Yrotation
										JOINT RightHandMiddle3
										{
											OFFSET	-3.7364	0.0000	0.0000
											CHANNELS 3 Zrotation Xrotation Yrotation
											End Site
											{
												OFFSET -2.3000 0.0000 0.0000
											}
										}
									}
								}
								JOINT RightHandRing1
								{
									OFFSET	-10.4702	0.3879	-1.9363
									CHANNELS 3 Zrotation Xrotation Yrotation
									JOINT RightHandRing2
									{
										OFFSET	-5.4013	0.0000	0.0000
										CHANNELS 3 Zrotation Xrotation Yrotation
										JOINT RightHandRing3
										{
											OFFSET	-3.3916	0.0000	0.0000
											CHANNELS 3 Zrotation Xrotation Yrotation
											End Site
											{
												OFFSET -2.2000 0.0000 0.0000
											}
										}
									}
								}
								JOINT RightHandPinky1
								{
									OFFSET	-9.9715	-0.1191	-3.9540
									CHANNELS 3 Zrotation Xrotation Yrotation
									JOINT RightHandPinky2
									{
										OFFSET	-3.6528	0.0000	0.0000
										CHANNELS 3 Zrotation Xrotation Yrotation
										JOINT RightHandPinky3
										{
											OFFSET	-2.7820	0.0000	0.0000
											CHANNELS 3 Zrotation Xrotation Yrotation
											End Site
											{
												OFFSET -2.9000 0.0000 0.0000
											}
										}
									}
								}
							}
						}
					}
				}
			}
		}
	}
	JOINT LeftUpLeg
	{
		OFFSET	9.6338	-3.2733	0.0000
		CHANNELS 3 Xrotation Yrotation Zrotation
		JOINT LeftLeg
		{
			OFFSET	0.0000	-41.7300	-1.7300
			CHANNELS 3 Xrotation Yrotation Zrotation
			JOINT LeftFoot
			{
				OFFSET	0.0126	-39.1900	-0.8477
				CHANNELS 3 Xrotation Yrotation Zrotation
				JOINT LeftToeBase
				{
					OFFSET	-0.1833	-12.1931	8.2823
					CHANNELS 3 Xrotation Yrotation Zrotation
					End Site
					{
						OFFSET 0.0000 0.0000 10.1681
					}
				}
			}
		}
	}
	JOINT RightUpLeg
	{
		OFFSET	-9.6338	-3.2733	0.0000
		CHANNELS 3 Xrotation Yrotation Zrotation
		JOINT RightLeg
		{
			OFFSET	0.0000	-41.7300	-1.7300
			CHANNELS 3 Xrotation Yrotation Zrotation
			JOINT RightFoot
			{
				OFFSET	0.0126	-39.1900	-0.8477
				CHANNELS 3 Xrotation Yrotation Zrotation
				JOINT RightToeBase
				{
					OFFSET	-0.1833	-12.1931	8.2823
					CHANNELS 3 Xrotation Yrotation Zrotation
					End Site
					{
						OFFSET 0.0032 0.0000 10.1681
					}
				}
			}
		}
	}
}
MOTION
Frames: 4
Frame Time: 0.0333333
2.6898 92.2809 78.2931 -4.4085 -3.1376 4.6758 3.9294 -0.0510 -4.8894 1.9143 0.0043 -0.3696 1.9145 -0.0068 -0.3666 -0.6152 0.9054 -0.3836 -0.0000 0.0000 -0.0000 -6.2763 -0.5079 0.2361 -7.7872 1.6163 -2.5355 -64.5175 23.7476 -10.0510 0.0000 0.0000 -7.3356 14.7827 10.9269 -15.5050 4.2097 10.7347 6.7566 0.3461 -3.9509 14.2206 3.2656 -1.2193 11.5793 -22.8227 -1.1912 1.9197 -22.3620 -0.3095 0.7032 2.9944 0.0105 0.2834 -16.3700 -0.6945 -3.9669 -21.2407 -0.2612 0.7056 4.0296 -0.0190 -0.2043 -30.1053 -1.5901 4.9494 -18.5370 0.0804 0.2953 -1.9944 0.0619 -0.0143 -34.1502 -3.1665 7.0027 -18.5134 -0.0924 -0.2351 0.9498 0.0003 0.8562 8.3532 2.1311 6.0904 71.3412 14.8794 -0.3972 -0.0000 -0.0000 12.9690 -8.4198 3.8844 -3.6850 2.1057 6.6744 -16.8378 -6.2638 -5.6725 0.4422 -2.3313 -1.0925 -11.8514 14.7961 -0.8479 1.7474 21.2292 -0.3428 -1.1407 8.8777 -0.0853 1.0452 24.4179 -1.3877 -2.5207 22.3659 -0.4001 -1.1604 9.9264 -0.0397 -0.2967 29.9593 -1.8057 -6.4492 18.5456 0.0181 -0.6774 9.6096 0.0403 1.6672 32.4757 -3.7173 -11.2132 18.5063 -0.1544 -0.1462 9.7143 -0.2611 1.9925 -13.4636 7.1203 -7.8480 32.7735 2.8397 0.0752 -15.7828 -1.5990 4.0548 -3.9848 0.0000 -0.0000 -33.9057 2.8579 -3.8685 65.6066 -7.3972 -0.2640 2.6277 0.0986 -9.9949 -3.8875 -0.0000 0.0543 
2.5128 92.4278 83.3166 -2.5430 -2.9205 3.5443 3.8599 -0.8628 -3.8799 1.9397 -0.0860 -0.2349 1.9395 -0.1001 -0.2341 -0.5918 0.8483 -0.3744 -0.0000 0.0000 -0.0000 -6.0965 -1.0619 0.2970 -7.6272 1.6732 -3.0600 -60.7300 23.7901 -15.7694 0.0000 -0.0000 -8.6017 15.3613 10.2870 -16.6511 4.2097 10.7347 6.7566 0.3461 -3.9509 14.2206 3.2656 -1.2193 11.5793 -22.8227 -1.1912 1.9197 -22.3620 -0.3095 0.7032 2.9945 0.0105 0.2834 -16.3701 -0.6945 -3.9669 -21.2407 -0.2612 0.7056 4.0296 -0.0190 -0.2043 -30.1053 -1.5901 4.9494 -18.5370 0.0804 0.2953 -1.9944 0.0619 -0.0143 -34.1502 -3.1665 7.0027 -18.5134 -0.0924 -0.2351 0.9499 0.0003 0.8562 8.4356 2.0905 5.7414 71.8423 14.5051 -3.6916 0.0000 0.0000 11.5726 -7.6739 2.9305 -2.3140 2.1057 6.6744 -16.8378 -6.2638 -5.6725 0.4422 -2.3313 -1.0925 -11.8514 14.7961 -0.8479 1.7474 21.2292 -0.3428 -1.1407 8.8777 -0.0853 1.0451 24.4178 -1.3877 -2.5207 22.3659 -0.4001 -1.1604 9.9264 -0.0397 -0.2967 29.9593 -1.8057 -6.4492 18.5456 0.0181 -0.6774 9.6096 0.0403 1.6672 32.4757 -3.7172 -11.2132 18.5063 -0.1544 -0.1462 9.7143 -0.2611 1.9925 -9.8357 6.9555 -6.7168 32.1327 0.4450 0.0537 -18.9028 -1.8094 4.3665 -3.4471 0.0000 -0.0000 -36.6104 1.7904 -2.5710 55.5463 -8.2405 -0.3120 -0.6302 0.2900 -8.4389 -3.3682 0.0000 -0.0000 
2.2882 92.3335 88.4079 -0.5241 -2.4088 2.5036 3.6632 -1.5954 -3.1456 1.8814 -0.1641 -0.1860 1.8808 -0.1788 -0.1870 -0.6370 0.7498 -0.2057 -0.0000 0.0000 -0.0000 -6.1563 -1.8832 0.7305 -7.2849 1.7277 -3.6651 -57.5330 22.8417 -20.7454 0.0000 0.0000 -10.6290 15.5099 9.5132 -18.5613 4.2097 10.7347 6.7566 0.3461 -3.9509 14.2206 3.2656 -1.2193 11.5793 -22.8227 -1.1912 1.9197 -22.3620 -0.3095 0.7032 2.9944 0.0105 0.2834 -16.3700 -0.6945 -3.9669 -21.2407 -0.2612 0.7056 4.0296 -0.0190 -0.2043 -30.1053 -1.5901 4.9494 -18.5370 0.0804 0.2953 -1.9944 0.0619 -0.0143 -34.1502 -3.1665 7.0027 -18.5134 -0.0924 -0.2351 0.9498 0.0003 0.8562 8.9058 2.0315 5.0534 72.0695 13.6623 -7.1396 0.0000 0.0000 11.1101 -7.6093 2.1848 -1.3724 2.1058 6.6744 -16.8378 -6.2638 -5.6725 0.4422 -2.3313 -1.0925 -11.8514 14.7961 -0.8479 1.7474 21.2292 -0.3428 -1.1407 8.8777 -0.0853 1.0451 24.4178 -1.3877 -2.5207 22.3659 -0.4001 -1.1604 9.9264 -0.0397 -0.2967 29.9593 -1.8057 -6.4492 18.5456 0.0181 -0.6774 9.6096 0.0403 1.6672 32.4757 -3.7173 -11.2132 18.5063 -0.1544 -0.1462 9.7143 -0.2611 1.9926 -6.3497 6.8363 -5.3766 31.1608 -2.1167 0.0360 -21.8383 -2.0194 4.6304 -2.9148 0.0000 -0.0000 -37.8299 0.4569 -1.7695 42.3580 -7.8600 -0.3099 -3.1654 0.3974 -6.3875 -3.3383 -0.0000 -0.0000 
2.0340 92.0072 93.6397 1.4541 -1.7509 1.7155 3.4224 -2.2614 -2.6891 1.7504 -0.2396 -0.2092 1.7493 -0.2529 -0.2116 -0.7213 0.6402 0.0463 -0.0000 0.0000 -0.0000 -6.5027 -2.7547 1.3644 -6.8981 1.7745 -4.2546 -55.0343 21.3429 -24.8827 0.0000 0.0000 -12.8435 15.7432 8.2681 -20.4665 4.2097 10.7347 6.7566 0.3462 -3.9509 14.2206 3.2656 -1.2193 11.5793 -22.8227 -1.1912 1.9197 -22.3620 -0.3095 0.7032 2.9944 0.0105 0.2834 -16.3701 -0.6945 -3.9669 -21.2407 -0.2612 0.7056 4.0296 -0.0190 -0.2043 -30.1053 -1.5901 4.9494 -18.5370 0.0804 0.2953 -1.9944 0.0620 -0.0143 -34.1502 -3.1665 7.0027 -18.5134 -0.0924 -0.2351 0.9498 0.0003 0.8562 9.5397 1.9402 4.0914 72.1091 11.9465 -10.3783 -0.0000 -0.0000 11.1327 -7.8900 1.6208 -0.8998 2.1057 6.6744 -16.8378 -6.2638 -5.6725 0.4422 -2.3313 -1.0925 -11.8514 14.7961 -0.8479 1.7474 21.2292 -0.3428 -1.1407 8.8777 -0.0853 1.0451 24.4178 -1.3877 -2.5207 22.3659 -0.4001 -1.1604 9.9264 -0.0397 -0.2967 29.9593 -1.8057 -6.4492 18.5456 0.0181 -0.6774 9.6096 0.0403 1.6672 32.4757 -3.7173 -11.2132 18.5063 -0.1544 -0.1462 9.7143 -0.2611 1.9925 -2.5766 6.9391 -3.9918 29.4412 -4.8590 0.0171 -24.4537 -2.1859 4.8257 -2.1962 0.0000 -0.0000 -37.4541 -0.8747 -1.3972 27.1048 -6.3381 -0.2558 -5.1319 0.4124 -4.5406 -3.4235 0.0000 -0.0000 
